<svg width="257" height="231" xmlns="http://www.w3.org/2000/svg" xmlns:xlink="http://www.w3.org/1999/xlink" xml:space="preserve" overflow="hidden"><defs><clipPath id="clip0"><rect x="65" y="302" width="257" height="231"/></clipPath><clipPath id="clip1"><rect x="66" y="303" width="256" height="230"/></clipPath><clipPath id="clip2"><rect x="66" y="303" width="256" height="230"/></clipPath><clipPath id="clip3"><rect x="66" y="303" width="1281" height="230"/></clipPath><clipPath id="clip4"><rect x="66" y="303" width="1281" height="230"/></clipPath></defs><g clip-path="url(#clip0)" transform="translate(-65 -302)"><g clip-path="url(#clip1)"><g clip-path="url(#clip2)"><g clip-path="url(#clip3)"><g clip-path="url(#clip4)"><path d="M17.8707 39.8285C11.4341 37.6053 5.84176 32.6294 2.57087 26.4891 0.882504 23.207 0.355053 19.6075-0.0670827 10.7146-0.489045 0.127694-0.383554-0.825048 1.19915-0.189886 2.25423 0.233612 4.68121 0.551193 6.68585 0.551193L10.2734 0.551193 10.2734 10.3971C10.2734 21.5132 11.9618 25.4303 17.8707 29.1358 24.8346 33.3704 34.331 30.8297 38.7626 23.6305 40.451 20.7721 40.8729 18.2313 40.8729 10.3971L40.8729 0.551193 44.4605 0.551193C46.4654 0.551193 48.8919 0.233612 49.8419-0.189886 51.5301-0.719127 51.6355 0.233612 51.2137 10.7146 50.8972 19.8194 50.3695 23.207 48.5759 26.5949 45.3046 32.7353 38.7626 38.2404 32.3263 40.1461 25.4677 42.2634 24.7291 42.2634 17.8707 39.8285Z" fill="#FFFFFF" fill-rule="evenodd" fill-opacity="1" transform="matrix(1.00002 0 0 -1 229.322 345.038)"/><path d="M3.81655 14.2088C-1.57731 11.2841-1.1542 2.51031 4.34522 0.235631 10.268-2.03905 16.2962 3.26853 14.7099 9.44271 13.5464 14.317 8.25845 16.5917 3.81655 14.2088Z" fill="#FFFFFF" fill-rule="evenodd" fill-opacity="1" transform="matrix(1.00002 0 0 -1 66.4832 357.601)"/><path d="M0.276483 81.535 0.699219 77.2877 33.6803 77.2877 66.5555 77.2877 105.139 38.5308 143.723-0.226269 150.066-0.226269 156.408-0.226269 113.596 42.778 70.784 85.7823 35.3718 85.7823-0.146425 85.7823 0.276483 81.535Z" fill="#FFFFFF" fill-rule="evenodd" fill-opacity="1" transform="matrix(1.00002 0 0 -1 86.7776 431.046)"/><path d="M1.83373 72.0799C-0.173854 70.0717-0.279489 68.5917-0.279489 47.452L-0.279489 25.0439 12.294 12.4658 24.9732-0.218106 38.1807 12.4658 51.3886 25.0439 51.3886 47.9806C51.4939 70.4945 51.4939 70.9173 49.1698 72.5027 47.1619 73.8769 43.0411 74.1938 25.3959 74.1938 5.32039 74.1938 3.84115 74.088 1.83373 72.0799ZM32.4752 62.0386C36.3846 60.03 38.8147 55.4851 38.8147 50.2004 38.8147 45.5495 35.6449 39.8417 32.5808 38.7847 30.6789 38.2563 30.362 37.3049 30.362 31.8086L30.362 25.5725 26.1355 25.5725 21.9091 25.5725 21.9091 31.28C21.9091 36.4595 21.5922 37.3049 17.6827 41.2159 13.9845 44.9153 13.4564 45.9723 13.4564 50.2004 13.4564 60.2416 23.7054 66.5835 32.4752 62.0386Z" fill="#FFFFFF" fill-rule="evenodd" fill-opacity="1" transform="matrix(1.00002 0 0 -1 229.322 429.113)"/><path d="M3.79617 13.7971C-1.59769 10.9638-1.17458 2.46415 4.32485 0.260556 10.2476-1.94304 16.2758 3.19868 14.6895 9.1799 13.526 13.9019 8.23806 16.1055 3.79617 13.7971Z" fill="#FFFFFF" fill-rule="evenodd" fill-opacity="1" transform="matrix(1.00002 0 0 -1 80.496 375.479)"/><path d="M-0.137312 63.6689-0.137312 59.4173 23.4095 59.4173 47.0624 59.4173 76.8674 29.5506 106.566-0.209876 111.975 0.108961 117.279 0.427798 84.8222 34.121 52.3656 67.7079 26.1673 67.8142-0.137312 67.9205-0.137312 63.6689Z" fill="#FFFFFF" fill-rule="evenodd" fill-opacity="1" transform="matrix(1.00002 0 0 -1 99.8241 431.046)"/><path d="M3.77583 13.8295C-1.61809 10.9962-1.19497 2.49647 4.30451 0.292848 10.2273-1.91077 16.2556 3.231 14.6693 9.21232 13.5058 13.9343 8.21776 16.1379 3.77583 13.8295Z" fill="#FFFFFF" fill-rule="evenodd" fill-opacity="1" transform="matrix(1.00002 0 0 -1 94.0257 393.357)"/><path d="M0.29307 45.3402 0.714619 41.1047 13.1534 41.1047 25.592 41.1047 45.9366 20.4558 66.3864-0.193063 71.9731-0.193063 77.6656-0.193063 53.6316 24.6915 29.703 49.5761 14.84 49.5761-0.128652 49.5761 0.29307 45.3402Z" fill="#FFFFFF" fill-rule="evenodd" fill-opacity="1" transform="matrix(1.00002 0 0 -1 114.32 431.046)"/><path d="M34.1783 119.272C32.6953 117.369 27.7164 108.802 22.9495 100.341L14.3688 85.0072 15.3222 65.9709 16.3816 47.0407 7.80091 38.3686C1.86866 32.4463-0.567752 29.2735-0.144119 28.1103 0.279688 27.1585 0.915313 26.4182 1.33894 26.4182 1.86866 26.4182 6.74166 30.8599 12.1442 36.3592L22.102 46.406 21.4664 65.3364 20.8308 84.3723 28.4579 90.189C37.7801 97.3804 37.4624 98.1206 37.5683 74.2199 37.6742 55.501 37.6742 55.501 31.1063 47.2521L27.0808 42.07 27.0808 22.2936C27.0808 8.33392 27.5046 2.09436 28.352 1.24826 29.1994 0.402166 34.6021-0.0208826 45.831-0.0208826 59.1786-0.0208826 62.2508 0.29636 62.6745 1.5655 63.2041 2.94028 57.2719 14.0446 53.776 18.275 52.7169 19.4383 50.5981 20.0728 47.5259 20.0728L42.9708 20.0728 42.9708 26.7354 42.9708 33.2924 56.1065 42.4931C63.2041 47.5693 69.7721 52.0109 70.6197 52.3284 71.7846 52.7512 74.751 48.204 81.5307 35.196 90.217 18.8038 90.9587 16.9002 91.4883 10.0259 91.7004 6.00725 92.4416 1.98855 92.9712 1.24826 94.3483-0.443931 121.997-0.54956 122.95 1.14246 124.646 3.68057 113.311 16.9002 109.391 16.9002 107.272 16.9002 105.789 18.3808 101.87 24.5145L96.9967 32.129 96.9967 44.0795 96.9967 56.0301 127.823 56.0301C156.637 56.0301 158.544 55.9243 158.014 54.2322 157.697 53.1745 154.836 43.6564 151.553 33.0808 146.68 17.3232 145.62 12.8815 145.938 7.69925L146.256 1.5655 161.404 1.24826C178.883 0.931017 179.201 1.14246 172.422 10.0259 169.032 14.4677 167.76 15.3138 164.477 15.631 162.358 15.8427 160.557 16.2655 160.557 16.583 160.557 17.6405 175.6 53.3861 176.447 54.2322 176.87 54.7608 179.731 47.3579 182.909 37.8397 186.829 25.572 188.629 18.4864 188.841 13.1987 189.583-0.126514 188.099 1.03665 204.519 1.03665 221.151 1.03665 221.257 1.14246 214.477 10.0259 210.982 14.6793 209.498 15.8427 207.168 15.8427 200.388 15.8427 200.812 12.2468 200.812 67.1344 200.812 106.899 200.494 117.369 199.435 118.214 198.375 119.166 194.88 116.205 184.392 105.735L170.621 91.987 130.472 91.987 90.217 91.987 75.1747 107.322 60.2383 122.656 48.4793 122.656 36.7209 122.656 34.1783 119.272Z" fill="#FFFFFF" fill-rule="evenodd" fill-opacity="1" transform="matrix(1.00002 0 0 -1 85.328 532.517)"/><path d="M-0.483057 60.3243-0.483057-0.0751511 30.1998-0.0751511 60.8824-0.0751511 60.8824 7.87218 60.8824 15.8194 40.2511 15.8194 19.6194 15.8194 19.6194 68.2713 19.6194 120.723 9.56824 120.723-0.483057 120.723-0.483057 60.3243Z" fill="#FFFFFF" fill-rule="evenodd" fill-opacity="1" transform="matrix(1.00002 0 0 -1 361.719 531.55)"/><path d="M-1.61903 60.3243-1.61903-0.0751511 8.52812-0.0751511 18.6752-0.0751511 18.6752 60.3243 18.6752 120.723 8.52812 120.723-1.61903 120.723-1.61903 60.3243Z" fill="#FFFFFF" fill-rule="evenodd" fill-opacity="1" transform="matrix(1.00002 0 0 -1 1138.71 531.55)"/><path d="M-1.84366 112.776-1.84366 104.829 14.6332 104.829 31.1102 104.829 31.1102 52.3767 31.1102-0.0751511 41.209-0.0751511 51.3074-0.0751511 51.3074 52.3767 51.3074 104.829 67.2533 104.829 83.1986 104.829 83.1986 112.776 83.1986 120.723 40.6774 120.723-1.84366 120.723-1.84366 112.776Z" fill="#FFFFFF" fill-rule="evenodd" fill-opacity="1" transform="matrix(1.00002 0 0 -1 1262.41 531.55)"/><path d="M33.2713 96.5352C20.4384 92.934 10.1507 84.1438 4.63559 72.2818-7.66721 46.1228 2.5144 14.0326 26.5897 2.80631 32.1048 0.264546 33.9077-0.0531532 44.9378-0.0531532 56.0741-0.0531532 57.6648 0.158588 62.9678 2.80631 66.2555 4.39499 70.9221 7.46621 73.3613 9.47851L77.8159 13.3972 77.8159 6.93677 77.8159 0.476287 87.8914 0.476287 97.9669 0.476287 97.9669 48.6648 97.9669 96.9585 88.2098 96.6411 78.3464 96.3231 78.028 89.8628 77.71 83.4025 73.7855 87.1091C67.104 93.4641 57.8769 97.0648 47.271 97.4881 41.7561 97.7002 36.1349 97.3823 33.2713 96.5352ZM57.2405 79.378C64.0284 77.366 70.71 71.6464 74.4219 64.6566 76.9674 59.785 77.2858 58.0905 77.2858 48.6648 77.2858 39.7684 76.8616 37.3323 74.8462 33.2019 69.9674 23.2466 61.5888 17.3158 51.089 16.5744 39.1046 15.6213 29.135 21.5521 23.8321 32.5665 12.9081 55.1251 25.8473 80.1192 48.7556 80.8605 50.5589 80.9668 54.3771 80.2251 57.2405 79.378Z" fill="#FFFFFF" fill-rule="evenodd" fill-opacity="1" transform="matrix(1.00002 0 0 -1 424.052 532.034)"/><path d="M36.7574 96.0095C31.0419 94.1033 26.4907 91.6671 22.5745 88.278L19.2934 85.5242 19.2934 90.9259 19.2934 96.4333 9.55597 96.1154-0.287467 95.7979-0.604919 47.819-0.816727-0.0536784 9.23832-0.0536784 19.2934-0.0536784 19.2934 29.3902C19.2934 62.4353 19.9285 66.8836 25.8556 72.9206 30.301 77.4747 33.688 79.0635 40.1443 80.0168 47.4474 80.9697 55.9146 78.4281 60.2542 73.8735 67.1339 66.7773 67.346 65.1886 67.7693 30.873L68.1926-0.0536784 77.5066-0.0536784 86.9265-0.0536784 87.2444 31.4024C87.5619 61.482 87.6677 63.1766 89.8904 67.3069 92.6422 72.4969 98.6753 78.0043 102.697 79.0635 104.285 79.4872 108.201 79.911 111.376 79.911 114.552 79.911 118.468 79.4872 120.055 79.0635 124.077 78.0043 130.11 72.4969 132.862 67.3069 135.085 63.1766 135.191 61.482 135.508 31.4024L135.931-0.0536784 145.352-0.0536784 154.772-0.0536784 154.772 32.6735C154.772 62.5412 154.56 66.0361 152.655 72.2848 149.797 81.6055 142.6 89.5488 133.391 93.7854 127.464 96.4333 125.559 96.8566 116.139 96.8566 106.613 96.8566 104.814 96.5391 98.887 93.7854 94.5474 91.7729 90.5253 88.8075 87.2444 85.2063L82.2694 79.6989 77.5066 84.9947C70.6269 92.7262 62.0536 96.5391 50.1994 96.9629 44.378 97.2803 39.4033 96.8566 36.7574 96.0095Z" fill="#FFFFFF" fill-rule="evenodd" fill-opacity="1" transform="matrix(1.00002 0 0 -1 539.537 531.55)"/><path d="M32.6921 96.5352C19.922 92.934 9.68479 84.1438 4.19672 72.2818-8.0458 46.1228 2.08593 14.0326 26.0432 2.80631 31.5313 0.264546 33.3254-0.0531532 44.3013-0.0531532 55.3826-0.0531532 56.9661 0.158588 62.243 2.80631 65.5147 4.39499 70.1582 7.46621 72.5858 9.47851L77.0181 13.3972 77.0181 6.93677 77.0181 0.476287 87.0444 0.476287 97.0706 0.476287 97.0706 48.6648 97.0706 96.9585 87.3609 96.6411 77.5462 96.3231 77.2293 89.8628 76.9128 83.4025 73.0076 87.1091C66.3589 93.4641 57.1772 97.0648 46.6232 97.4881 41.1353 97.7002 35.5417 97.3823 32.6921 96.5352ZM56.5438 79.378C63.2983 77.366 69.9471 71.6464 73.6411 64.6566 76.174 59.785 76.4905 58.0905 76.4905 48.6648 76.4905 39.7684 76.0686 37.3323 74.0634 33.2019 69.2083 23.2466 60.8708 17.3158 50.4227 16.5744 38.4967 15.6213 28.576 21.5521 23.2991 32.5665 12.4287 55.1251 25.3044 80.1192 48.1007 80.8605 49.895 80.9668 53.6944 80.2251 56.5438 79.378Z" fill="#FFFFFF" fill-rule="evenodd" fill-opacity="1" transform="matrix(1.00002 0 0 -1 705.758 532.034)"/><path d="M24.0565 95.9607C5.90573 91.1017-3.59179 75.5748 2.52894 60.893 6.3279 51.7036 13.5039 47.1614 33.4486 41.2464 52.7604 35.5425 55.7151 33.6415 55.7151 26.9868 55.7151 21.7057 52.0216 18.0088 45.1622 16.3187 34.1873 13.678 22.157 18.8537 20.3631 26.9868L19.6244 30.05 9.17719 30.05-1.1647 30.05-0.531513 26.67C1.26256 16.7412 8.75498 7.76298 19.0967 3.00984 25.2174 0.157992 26.4836-0.053359 39.3581-0.053359 51.0716-0.053359 53.8157 0.263493 57.931 2.27046 79.3534 12.1992 81.8858 37.4439 62.6798 48.429 60.3581 49.8022 51.2828 53.1822 42.6296 55.9287 30.8103 59.6256 26.1671 61.6323 23.8455 63.8501 19.7299 68.0756 19.8354 72.9342 24.1621 77.1592 27.2223 80.011 27.8555 80.2222 36.1923 80.2222 46.5341 80.2222 49.6998 78.6378 53.0769 71.4556L55.1874 67.1247 65.0016 67.0194 74.8157 67.0194 74.0769 71.0328C72.494 80.328 66.3734 88.9892 58.564 93.0031 49.6998 97.6505 35.0315 98.9184 24.0565 95.9607Z" fill="#FFFFFF" fill-rule="evenodd" fill-opacity="1" transform="matrix(1.00002 0 0 -1 815.928 532.034)"/><path d="M24.0819 95.9607C5.81692 91.1017-3.74031 75.5748 2.41891 60.893 6.24179 51.7036 13.4628 47.1614 33.533 41.2464 52.9662 35.5425 55.9393 33.6415 55.9393 26.9868 55.9393 21.7057 52.2226 18.0088 45.3203 16.3187 34.2764 13.678 22.1704 18.8537 20.3652 26.9868L19.6219 30.05 9.10897 30.05-1.29796 30.05-0.660786 26.67C1.14457 16.7412 8.68414 7.76298 19.0909 3.00984 25.2501 0.157992 26.5243-0.053359 39.4797-0.053359 51.2668-0.053359 54.0283 0.263493 58.1697 2.27046 79.7264 12.1992 82.2748 37.4439 62.948 48.429 60.6118 49.8022 51.4794 53.1822 42.7718 55.9287 30.8782 59.6256 26.2058 61.6323 23.8696 63.8501 19.7281 68.0756 19.8342 72.9342 24.1881 77.1592 27.2676 80.011 27.9048 80.2222 36.294 80.2222 46.7008 80.2222 49.8863 78.6378 53.2846 71.4556L55.4087 67.1247 65.2842 67.0194 75.1602 67.0194 74.4171 71.0328C72.824 80.328 66.6647 88.9892 58.8066 93.0031 49.8863 97.6505 35.1259 98.9184 24.0819 95.9607Z" fill="#FFFFFF" fill-rule="evenodd" fill-opacity="1" transform="matrix(1.00002 0 0 -1 900.488 532.034)"/><path d="M33.6091 96.5884C9.53335 89.9343-4.82771 67.1209-1.13188 41.1385 2.56395 15.3676 20.4097-0.0528343 46.5974-0.0528343 72.4684-0.0528343 91.3699 15.8956 95.277 41.033 99.2895 67.649 83.4504 91.7299 58.4239 97.0107 51.1378 98.4898 39.9447 98.3839 33.6091 96.5884ZM60.7471 77.2602C66.7662 73.8802 72.2572 66.6981 74.1576 59.8329 74.7911 57.4038 75.108 51.3837 74.8969 46.4195 74.5799 39.0262 73.9464 36.4913 71.4126 31.7386 65.9211 21.8102 57.3681 16.8463 45.5414 16.8463 34.2427 16.8463 24.3167 24.1339 20.5153 35.3295 17.7697 43.251 18.0865 56.9815 21.1488 63.9521 27.9069 79.4781 45.9638 85.4986 60.7471 77.2602Z" fill="#FFFFFF" fill-rule="evenodd" fill-opacity="1" transform="matrix(1.00002 0 0 -1 1173.01 532.517)"/><path d="M-1.11583 61.972C-0.798095 27.932-0.692184 26.5576 1.63859 21.589 5.4523 13.1319 10.6432 7.63455 18.4827 3.82893 24.5211 0.868907 26.8517 0.340256 35.1148 0.023136 46.3444-0.505512 53.7601 1.7145 61.7052 7.84609L66.4724 11.4403 66.4724 6.15453 66.4724 0.868907 76.0068 0.868907 85.5412 0.868907 85.5412 48.9692 85.5412 97.0697 76.1126 97.0697 66.6845 97.0697 66.2608 66.2009C65.9428 37.4463 65.7307 34.9091 63.7182 30.4691 54.7134 11.0174 25.3686 12.4975 19.4361 32.6891 18.0589 37.1292 17.7412 44.1063 17.7412 67.6809L17.7412 97.0697 8.10064 97.0697-1.43375 97.0697-1.11583 61.972Z" fill="#FFFFFF" fill-rule="evenodd" fill-opacity="1" transform="matrix(1.00002 0 0 -1 989.398 532.517)"/></g></g></g></g></g></svg>